<svg width="284" height="38" viewBox="0 0 284 38" fill="none" xmlns="http://www.w3.org/2000/svg">
<path d="M35.5242 0.153189H51.2215L34.2102 37.4803H17.6961L0.75592 0.153189H16.5242L23.5915 19.0721C25.0594 23.2763 25.8644 26.2039 26.0064 27.8549C26.1722 26.6634 26.5036 25.1741 27.0008 23.3869C27.498 21.5997 27.936 20.1955 28.3149 19.1742L35.5242 0.153189Z" fill="white"/>
<path d="M88.7244 37.4803L86.1673 30.4847H69.2981L66.6701 37.4803H51.257L68.1972 0H86.9131L104.066 37.4803H88.7244ZM83.2552 22.2124L81.0178 16.0849C80.4969 14.7232 79.8577 12.9615 79.1 10.7998C78.3661 8.63817 77.8807 7.08926 77.644 6.1531C77.4309 7.02118 77.0047 8.45094 76.3654 10.4424C75.7499 12.4339 74.3648 16.3572 72.2103 22.2124H83.2552Z" fill="white"/>
<path d="M109.713 37.4803V0.153189H123.741V29.3358H143.736V37.4803H109.713Z" fill="white"/>
<path d="M152.046 37.4803V0.153189H166.074V29.3358H186.069V37.4803H152.046Z" fill="white"/>
<path d="M225.205 37.4803H194.379V0.153189H225.205V8.24669H208.407V14.1189H223.962V22.2124H208.407V29.2592H225.205V37.4803Z" fill="white"/>
<path d="M283.732 37.4803H265.336L246.371 11.1828H246.052C246.502 15.3189 246.727 18.4763 246.727 20.655V37.4803H234.297V0.153189H252.622L271.515 26.0932H271.729C271.397 22.3316 271.231 19.3104 271.231 17.0295V0.153189H283.732V37.4803Z" fill="white"/>
</svg>
